HIERARCHY
ROOT Hips
{
	OFFSET 0.000000 83.214638 0.000000
	CHANNELS 6 Xposition Yposition Zposition Xrotation Yrotation Zrotation
	JOINT Pelvis
	{
		OFFSET 0.000000 0.000000 0.000000
		CHANNELS 3 Xrotation Yrotation Zrotation
		JOINT LeftUpLeg
		{
			OFFSET 8.479700 -4.795502 -0.379100
			CHANNELS 3 Xrotation Yrotation Zrotation
			JOINT LeftLeg
			{
				OFFSET 0.024144 -32.555107 0.112900
				CHANNELS 3 Xrotation Yrotation Zrotation
				JOINT LeftFoot
				{
					OFFSET -0.024144 -32.638630 -3.012600
					CHANNELS 3 Xrotation Yrotation Zrotation
					JOINT LeftToeBase
					{
						OFFSET 0.970200 -13.225400 11.864200
						CHANNELS 3 Xrotation Yrotation Zrotation
						End Site
						{
							OFFSET 0.000000 12.319262 0.000000
						}
					}
					JOINT LFootTongue
					{
						OFFSET 1.142400 -1.059800 6.665200
						CHANNELS 3 Xrotation Yrotation Zrotation
						End Site
						{
							OFFSET 0.000000 12.319262 0.000000
						}
					}
				}
				JOINT LeftPantLeg
				{
					OFFSET 0.918482 -16.533964 -2.284700
					CHANNELS 3 Xrotation Yrotation Zrotation
					End Site
					{
						OFFSET 0.350399 24.744368 0.000000
					}
				}
			}
		}
		JOINT RightUpLeg
		{
			OFFSET -8.479700 -4.795502 -0.379100
			CHANNELS 3 Xrotation Yrotation Zrotation
			JOINT RightLeg
			{
				OFFSET -0.023144 -32.555092 0.112900
				CHANNELS 3 Xrotation Yrotation Zrotation
				JOINT RightFoot
				{
					OFFSET 0.023144 -32.638641 -3.012700
					CHANNELS 3 Xrotation Yrotation Zrotation
					JOINT RightToeBase
					{
						OFFSET -0.970200 -13.225400 11.864200
						CHANNELS 3 Xrotation Yrotation Zrotation
						End Site
						{
							OFFSET 0.000000 12.319244 0.000000
						}
					}
					JOINT RFootTongue
					{
						OFFSET -1.142200 -1.059800 6.665200
						CHANNELS 3 Xrotation Yrotation Zrotation
						End Site
						{
							OFFSET 0.000000 12.319243 0.000000
						}
					}
				}
				JOINT RightPantLeg
				{
					OFFSET -0.919482 -16.533978 -2.284800
					CHANNELS 3 Xrotation Yrotation Zrotation
					End Site
					{
						OFFSET -0.350400 24.744419 0.000000
					}
				}
			}
		}
	}
	JOINT Spine
	{
		OFFSET 0.000000 7.722000 1.166200
		CHANNELS 3 Xrotation Yrotation Zrotation
		JOINT Spine1
		{
			OFFSET 0.000000 12.024101 0.248800
			CHANNELS 3 Xrotation Yrotation Zrotation
			JOINT Spine2
			{
				OFFSET 0.000000 11.502998 -0.491200
				CHANNELS 3 Xrotation Yrotation Zrotation
				JOINT Neck
				{
					OFFSET 0.000000 18.430702 -3.123100
					CHANNELS 3 Xrotation Yrotation Zrotation
					JOINT Head
					{
						OFFSET 0.000000 9.051102 1.034000
						CHANNELS 3 Xrotation Yrotation Zrotation
						JOINT HairB
						{
							OFFSET 0.208400 24.786102 24.822300
							CHANNELS 3 Xrotation Yrotation Zrotation
							End Site
							{
								OFFSET 0.000000 32.263779 0.000000
							}
						}
						JOINT HairA
						{
							OFFSET -7.081100 24.428299 23.196600
							CHANNELS 3 Xrotation Yrotation Zrotation
							End Site
							{
								OFFSET 0.000000 32.263779 0.000000
							}
						}
						JOINT Hat
						{
							OFFSET 16.728800 15.048294 -15.439601
							CHANNELS 3 Xrotation Yrotation Zrotation
							End Site
							{
								OFFSET 0.000000 32.263779 0.000000
							}
						}
					}
				}
				JOINT LeftShoulder
				{
					OFFSET 6.197800 13.665199 -4.064700
					CHANNELS 3 Xrotation Yrotation Zrotation
					JOINT LeftArm
					{
						OFFSET 7.778100 -0.187103 -1.709300
						CHANNELS 3 Xrotation Yrotation Zrotation
						JOINT LeftForeArm
						{
							OFFSET 22.049376 0.000000 0.000000
							CHANNELS 3 Xrotation Yrotation Zrotation
							JOINT LeftHand
							{
								OFFSET 23.009392 0.000000 0.000000
								CHANNELS 3 Xrotation Yrotation Zrotation
								JOINT LeftHandThumb1
								{
									OFFSET 3.507191 -2.063065 3.133727
									CHANNELS 3 Xrotation Yrotation Zrotation
									JOINT LeftHandThumb2
									{
										OFFSET 3.101337 -1.790558 1.790558
										CHANNELS 3 Xrotation Yrotation Zrotation
										JOINT LeftHandThumb3
										{
											OFFSET 3.058640 -1.765907 1.765906
											CHANNELS 3 Xrotation Yrotation Zrotation
											End Site
											{
												OFFSET -0.415260 3.926476 -0.049563
											}
										}
									}
								}
								JOINT LeftHandIndex1
								{
									OFFSET 11.334419 -0.901459 3.706815
									CHANNELS 3 Xrotation Yrotation Zrotation
									JOINT LeftHandIndex2
									{
										OFFSET 3.283112 0.000000 0.000000
										CHANNELS 3 Xrotation Yrotation Zrotation
										JOINT LeftHandIndex3
										{
											OFFSET 3.323853 0.000000 0.000000
											CHANNELS 3 Xrotation Yrotation Zrotation
											End Site
											{
												OFFSET -1.135597 3.097809 0.402452
											}
										}
									}
								}
								JOINT LeftHandMiddle1
								{
									OFFSET 11.335861 0.000000 0.000000
									CHANNELS 3 Xrotation Yrotation Zrotation
									JOINT LeftHandMiddle2
									{
										OFFSET 3.410492 0.000000 0.000000
										CHANNELS 3 Xrotation Yrotation Zrotation
										JOINT LeftHandMiddle3
										{
											OFFSET 3.312172 0.000000 0.000000
											CHANNELS 3 Xrotation Yrotation Zrotation
											End Site
											{
												OFFSET -1.150200 3.080154 0.400270
											}
										}
									}
								}
								JOINT LeftHandRing1
								{
									OFFSET 11.514786 -0.013176 -3.003090
									CHANNELS 3 Xrotation Yrotation Zrotation
									JOINT LeftHandRing2
									{
										OFFSET 3.053307 0.000000 0.000000
										CHANNELS 3 Xrotation Yrotation Zrotation
										JOINT LeftHandRing3
										{
											OFFSET 3.295807 0.000000 0.000000
											CHANNELS 3 Xrotation Yrotation Zrotation
											End Site
											{
												OFFSET -1.281006 3.013344 0.375733
											}
										}
									}
								}
								JOINT LeftHandPinky1
								{
									OFFSET 10.518692 -0.960396 -5.730441
									CHANNELS 3 Xrotation Yrotation Zrotation
									JOINT LeftHandPinky2
									{
										OFFSET 2.861649 0.000000 0.000000
										CHANNELS 3 Xrotation Yrotation Zrotation
										JOINT LeftHandPinky3
										{
											OFFSET 2.863380 0.000000 0.000000
											CHANNELS 3 Xrotation Yrotation Zrotation
											End Site
											{
												OFFSET -0.843597 2.711159 0.369971
											}
										}
									}
								}
							}
							JOINT LSleeve
							{
								OFFSET 6.676277 -0.344902 -1.011730
								CHANNELS 3 Xrotation Yrotation Zrotation
								End Site
								{
									OFFSET 0.000000 14.885353 0.000000
								}
							}
						}
					}
				}
				JOINT RightShoulder
				{
					OFFSET -6.197800 13.665199 -4.064700
					CHANNELS 3 Xrotation Yrotation Zrotation
					JOINT RightArm
					{
						OFFSET -7.778100 -0.187103 -1.709300
						CHANNELS 3 Xrotation Yrotation Zrotation
						JOINT RightForeArm
						{
							OFFSET -22.049376 0.000000 0.000000
							CHANNELS 3 Xrotation Yrotation Zrotation
							JOINT RightHand
							{
								OFFSET -23.009392 0.000000 0.000000
								CHANNELS 3 Xrotation Yrotation Zrotation
								JOINT RightHandThumb1
								{
									OFFSET -3.507191 -2.063065 3.133727
									CHANNELS 3 Xrotation Yrotation Zrotation
									JOINT RightHandThumb2
									{
										OFFSET -3.101337 -1.790558 1.790558
										CHANNELS 3 Xrotation Yrotation Zrotation
										JOINT RightHandThumb3
										{
											OFFSET -3.058640 -1.765907 1.765906
											CHANNELS 3 Xrotation Yrotation Zrotation
											End Site
											{
												OFFSET 0.415260 3.926476 -0.049563
											}
										}
									}
								}
								JOINT RightHandIndex1
								{
									OFFSET -11.334419 -0.901459 3.706815
									CHANNELS 3 Xrotation Yrotation Zrotation
									JOINT RightHandIndex2
									{
										OFFSET -3.283112 0.000000 0.000000
										CHANNELS 3 Xrotation Yrotation Zrotation
										JOINT RightHandIndex3
										{
											OFFSET -3.323853 0.000000 0.000000
											CHANNELS 3 Xrotation Yrotation Zrotation
											End Site
											{
												OFFSET 1.135597 3.097809 0.402452
											}
										}
									}
								}
								JOINT RightHandMiddle1
								{
									OFFSET -11.335861 0.000000 0.000000
									CHANNELS 3 Xrotation Yrotation Zrotation
									JOINT RightHandMiddle2
									{
										OFFSET -3.410492 0.000000 0.000000
										CHANNELS 3 Xrotation Yrotation Zrotation
										JOINT RightHandMiddle3
										{
											OFFSET -3.312172 0.000000 0.000000
											CHANNELS 3 Xrotation Yrotation Zrotation
											End Site
											{
												OFFSET 1.150200 3.080154 0.400270
											}
										}
									}
								}
								JOINT RightHandRing1
								{
									OFFSET -11.514786 -0.013176 -3.003090
									CHANNELS 3 Xrotation Yrotation Zrotation
									JOINT RightHandRing2
									{
										OFFSET -3.053307 0.000000 0.000000
										CHANNELS 3 Xrotation Yrotation Zrotation
										JOINT RightHandRing3
										{
											OFFSET -3.295807 0.000000 0.000000
											CHANNELS 3 Xrotation Yrotation Zrotation
											End Site
											{
												OFFSET 1.281006 3.013344 0.375733
											}
										}
									}
								}
								JOINT RightHandPinky1
								{
									OFFSET -10.518692 -0.960396 -5.730441
									CHANNELS 3 Xrotation Yrotation Zrotation
									JOINT RightHandPinky2
									{
										OFFSET -2.861649 0.000000 0.000000
										CHANNELS 3 Xrotation Yrotation Zrotation
										JOINT RightHandPinky3
										{
											OFFSET -2.863380 0.000000 0.000000
											CHANNELS 3 Xrotation Yrotation Zrotation
											End Site
											{
												OFFSET 0.843597 2.711159 0.369971
											}
										}
									}
								}
							}
							JOINT RSleeve
							{
								OFFSET -6.676277 -0.344902 -1.011730
								CHANNELS 3 Xrotation Yrotation Zrotation
								End Site
								{
									OFFSET 0.000000 14.885353 0.000000
								}
							}
						}
					}
				}
				JOINT Backpack
				{
					OFFSET 0.000000 -2.471497 36.677502
					CHANNELS 3 Xrotation Yrotation Zrotation
					End Site
					{
						OFFSET 0.000000 20.427315 0.000000
					}
				}
				JOINT Hood
				{
					OFFSET 0.000000 18.754097 -10.431000
					CHANNELS 3 Xrotation Yrotation Zrotation
					JOINT Hood1
					{
						OFFSET 0.000000 -5.011002 -7.685901
						CHANNELS 3 Xrotation Yrotation Zrotation
						End Site
						{
							OFFSET 0.000000 9.175140 0.000000
						}
					}
				}
				JOINT LHoodieString
				{
					OFFSET 5.250500 16.397697 3.089900
					CHANNELS 3 Xrotation Yrotation Zrotation
					JOINT LHoodieString1
					{
						OFFSET 0.257700 -6.364304 3.694600
						CHANNELS 3 Xrotation Yrotation Zrotation
						JOINT LHoodieString2
						{
							OFFSET 0.000000 -9.643799 2.679100
							CHANNELS 3 Xrotation Yrotation Zrotation
							End Site
							{
								OFFSET 0.000000 10.009018 0.000000
							}
						}
					}
				}
				JOINT RHoodieString
				{
					OFFSET -5.250500 16.397697 3.089900
					CHANNELS 3 Xrotation Yrotation Zrotation
					JOINT RHoodieString1
					{
						OFFSET -0.257700 -6.364304 3.694600
						CHANNELS 3 Xrotation Yrotation Zrotation
						JOINT RHoodieString2
						{
							OFFSET 0.000000 -9.643799 2.679100
							CHANNELS 3 Xrotation Yrotation Zrotation
							End Site
							{
								OFFSET 0.000000 10.009018 0.000000
							}
						}
					}
				}
			}
			JOINT LBackpack_Strap
			{
				OFFSET 15.223200 -7.719803 -6.610900
				CHANNELS 3 Xrotation Yrotation Zrotation
				End Site
				{
					OFFSET 0.000000 16.040596 0.000000
				}
			}
			JOINT RBackpack_Strap
			{
				OFFSET -15.223000 -7.719803 -6.610900
				CHANNELS 3 Xrotation Yrotation Zrotation
				End Site
				{
					OFFSET 0.000000 16.040596 0.000000
				}
			}
		}
	}
	JOINT BoyFacialAnim_Joint
	{
		OFFSET 1.000000 -82.208099 -1.550900
		CHANNELS 3 Xrotation Yrotation Zrotation
		End Site
		{
			OFFSET 0.000000 30.012791 0.000000
		}
	}
}
MOTION
Frames: 4
Frame Time: 0.033333
-3.208395 122.108742 70.909370 7.097735 -22.121390 6.017560 -0.000000 -0.000001 0.000000 -62.585208 12.282197 22.751164 89.857791 0.425171 -4.533521 -6.236543 -1.838160 16.169590 0.000000 0.000000 0.000001 0.000000 0.000000 0.000001 -0.000000 0.000000 0.000000 -42.931875 -2.767287 2.710302 50.367338 -4.728320 0.524773 -15.868179 1.984815 -9.881860 0.000000 0.000001 0.000000 0.000000 0.000001 0.000000 -0.000000 -0.000001 -0.000001 0.288837 1.787188 -0.199116 0.194250 2.355731 -3.209566 0.228739 2.394069 -3.180251 0.867991 2.337177 1.052521 -6.230415 14.104579 -3.535628 0.000000 0.000000 -0.000001 0.000000 0.000000 -0.000001 0.000000 0.000000 -0.000001 0.563763 3.710534 -9.702405 0.535502 6.358232 -50.150066 -0.000001 -21.320702 -0.000008 9.393349 -22.764100 -16.400536 -1.789171 14.196020 7.738110 3.939056 7.948702 0.746790 -0.000003 0.000001 0.000001 0.358224 2.196042 -18.527197 0.358231 2.196026 -18.527225 0.000001 0.000002 0.000002 0.265327 1.896589 -15.925824 0.374593 2.244247 -18.949706 0.000001 -0.000001 0.000000 0.304008 2.027172 -17.055653 0.427473 2.392616 -20.257016 -0.000003 -0.000001 -0.000004 2.023875 6.360896 -21.701666 0.512184 -1.459805 -22.567619 -0.000003 -0.000001 0.000001 0.000000 0.000002 -0.000001 0.917840 0.025014 8.185679 -2.164452 12.685574 74.925877 -0.000004 44.219847 0.000016 39.547069 1.053427 2.535397 -4.970574 -9.296921 -8.858667 4.637208 -8.634136 -0.225406 -0.000001 0.000002 -0.000000 0.254844 -1.868793 15.529562 0.254842 -1.868804 15.529564 0.000001 0.000001 0.000002 0.219475 -1.736539 14.405052 0.308862 -2.053196 17.108137 0.000003 0.000001 -0.000000 0.292383 -1.998857 16.641630 0.411182 -2.359906 19.765195 -0.000000 0.000001 -0.000003 0.540133 -2.691522 22.690472 0.540127 -2.691533 22.690483 0.000000 0.000002 0.000004 -0.000000 0.000004 0.000000 0.000000 0.000000 0.000000 0.000000 0.000000 0.000000 0.000000 0.000000 0.000000 0.000000 0.000000 0.000000 0.000000 0.000000 0.000000 -0.000000 0.000002 -0.000000 0.000000 0.000000 0.000000 0.000000 0.000000 0.000000 -0.000000 0.000002 -0.000000 -0.000001 0.000001 -0.000000 -0.000001 0.000001 -0.000000 -0.000000 -0.000001 0.000000 
-3.349518 124.300308 73.011612 4.168904 -23.655491 6.151539 -0.000000 0.000001 -0.000000 -54.495658 12.024808 20.985982 75.129554 -1.118754 -6.690949 -6.082693 -1.529263 13.927765 0.000000 0.000000 0.000001 0.000000 0.000000 0.000001 0.000001 -0.000000 -0.000000 -34.660341 -2.323299 1.751918 44.181608 -3.025343 -1.038527 -15.398959 1.620045 -8.203259 0.000000 -0.000001 0.000000 0.000000 -0.000001 0.000000 0.000001 0.000000 -0.000000 0.419374 1.994545 -0.326907 0.588821 3.342897 -3.324513 0.626386 3.377415 -3.285445 1.432626 2.051038 1.441074 -4.935364 13.064858 -3.352701 -0.000000 -0.000000 0.000000 -0.000000 -0.000000 0.000000 -0.000000 -0.000000 0.000000 0.612199 2.599923 -9.236228 -2.628491 12.414420 -53.231441 0.000001 -8.302816 -0.000001 20.832973 -23.540662 -14.205807 -1.789172 14.196021 7.738107 3.939056 7.948699 0.746787 0.000002 -0.000002 -0.000002 0.358221 2.196045 -18.527197 0.358232 2.196024 -18.527228 -0.000003 -0.000001 -0.000002 0.265319 1.896592 -15.925824 0.374594 2.244247 -18.949711 0.000003 -0.000001 -0.000000 0.304007 2.027172 -17.055653 0.427474 2.392617 -20.257021 0.000001 0.000000 -0.000000 2.023878 6.360898 -21.701666 0.512188 -1.459806 -22.567619 -0.000000 0.000001 -0.000000 0.000000 0.000000 -0.000001 0.951818 -0.322256 9.552471 -4.506937 19.635778 77.300181 0.000003 48.684991 0.000000 39.345639 1.647309 5.153588 -4.970573 -9.296923 -8.858655 4.637206 -8.634130 -0.225406 -0.000003 -0.000000 0.000003 0.254846 -1.868799 15.529564 0.254845 -1.868806 15.529564 -0.000005 0.000002 0.000002 0.219476 -1.736545 14.405062 0.308858 -2.053196 17.108138 0.000000 0.000000 0.000001 0.292381 -1.998861 16.641635 0.411178 -2.359905 19.765191 -0.000001 -0.000001 0.000000 0.540133 -2.691529 22.690479 0.540121 -2.691533 22.690479 -0.000002 -0.000000 0.000000 -0.000000 -0.000003 0.000000 -0.000000 -0.000001 0.000000 -0.000000 -0.000001 0.000000 -0.000000 -0.000001 0.000000 -0.000000 -0.000001 0.000000 -0.000000 -0.000001 0.000000 -0.000000 0.000000 -0.000000 -0.000000 -0.000001 0.000000 -0.000000 -0.000001 0.000000 -0.000000 0.000000 -0.000000 -0.000000 0.000001 -0.000000 -0.000000 0.000001 -0.000000 -0.000000 0.000001 -0.000000 
-3.328331 126.042488 75.205856 0.033993 -24.649347 4.412094 -0.000000 -0.000001 0.000000 -44.167517 11.591383 19.175362 58.571379 -0.629943 -7.689820 -6.688049 -1.203495 10.574824 -0.000000 0.000000 0.000000 -0.000000 0.000000 0.000001 -0.000000 0.000000 0.000000 -25.344786 -3.174939 0.837290 38.011389 -1.823350 -1.406388 -14.843697 1.367398 -7.059662 0.000000 -0.000003 -0.000000 0.000000 -0.000003 -0.000000 -0.000000 -0.000001 0.000002 0.611482 2.199719 0.249776 1.082991 4.141939 -2.650038 1.098662 4.169848 -2.606072 2.352787 1.838872 1.639468 -3.733508 12.242627 -3.317447 -0.000000 0.000000 0.000000 -0.000000 0.000000 0.000000 -0.000000 0.000000 0.000000 0.687172 1.259195 -8.763265 -3.959540 19.185945 -55.700842 -0.000000 -0.799507 0.000012 29.966898 -22.066287 -11.980806 -1.789169 14.196019 7.738106 3.939054 7.948697 0.746783 0.000002 -0.000000 -0.000001 0.358228 2.196042 -18.527195 0.358232 2.196027 -18.527228 0.000003 0.000001 -0.000002 0.265326 1.896589 -15.925826 0.374594 2.244249 -18.949711 0.000004 0.000001 -0.000003 0.304011 2.027173 -17.055652 0.427477 2.392617 -20.257023 -0.000000 -0.000001 -0.000002 2.023881 6.360896 -21.701668 0.512185 -1.459806 -22.567618 -0.000005 -0.000000 0.000001 0.000000 0.000000 -0.000001 0.978703 -0.576468 10.615232 -6.681577 27.717140 77.858098 0.000009 53.829192 -0.000014 39.203438 1.691693 8.240799 -4.970573 -9.296921 -8.858661 4.637202 -8.634128 -0.225409 -0.000002 0.000001 -0.000001 0.254844 -1.868796 15.529557 0.254847 -1.868808 15.529562 -0.000003 0.000003 0.000002 0.219476 -1.736541 14.405053 0.308861 -2.053198 17.108140 -0.000001 0.000001 -0.000004 0.292380 -1.998859 16.641633 0.411184 -2.359910 19.765191 0.000002 0.000003 -0.000003 0.540133 -2.691524 22.690472 0.540124 -2.691533 22.690483 -0.000001 0.000000 0.000000 0.000001 0.000001 -0.000002 0.000000 -0.000001 -0.000000 0.000000 -0.000001 -0.000000 0.000000 -0.000001 -0.000000 0.000000 -0.000001 -0.000000 0.000000 -0.000001 -0.000000 -0.000000 -0.000001 -0.000000 0.000000 -0.000001 -0.000000 0.000000 -0.000001 -0.000000 -0.000000 -0.000001 -0.000000 -0.000000 0.000000 -0.000000 -0.000000 0.000000 -0.000000 -0.000000 -0.000001 0.000000 
-3.212088 127.037445 77.498093 -2.930003 -25.811635 1.919607 -0.000000 -0.000003 -0.000000 -34.195574 11.503208 17.996683 41.869896 2.387706 -7.649173 -7.870743 -1.130157 9.074830 -0.000000 0.000000 -0.000001 -0.000000 0.000000 -0.000000 -0.000001 -0.000000 0.000000 -18.041931 -3.980462 1.060809 33.004437 -2.745585 -1.276907 -14.358873 1.207374 -6.275045 0.000000 0.000003 0.000000 0.000000 0.000003 0.000000 -0.000000 -0.000003 0.000001 0.655103 2.443606 1.283140 1.290691 4.848148 -1.438501 1.265378 4.870023 -1.398781 3.445347 1.729362 1.688185 -2.438354 11.883966 -3.678363 0.000000 0.000000 0.000000 0.000000 0.000000 0.000000 0.000000 0.000000 0.000000 0.787451 -0.185915 -8.650400 -1.518384 24.945289 -58.121631 -0.000001 -0.000005 -0.000009 33.353736 -19.710654 -12.382654 -1.789171 14.196021 7.738107 3.939059 7.948699 0.746789 -0.000002 0.000000 -0.000001 0.358228 2.196042 -18.527197 0.358229 2.196025 -18.527228 -0.000003 -0.000001 -0.000000 0.265320 1.896591 -15.925826 0.374586 2.244249 -18.949709 0.000003 0.000000 0.000000 0.304010 2.027171 -17.055652 0.427475 2.392616 -20.257016 -0.000000 -0.000000 0.000001 2.023873 6.360896 -21.701666 0.512184 -1.459805 -22.567616 -0.000002 -0.000001 0.000005 -0.000001 0.000000 0.000003 0.982358 -0.781858 11.211394 -8.052080 36.149794 76.850058 -0.000035 59.400926 0.000037 39.070926 1.620383 10.533327 -4.970572 -9.296924 -8.858658 4.637205 -8.634130 -0.225405 -0.000003 -0.000001 0.000003 0.254844 -1.868800 15.529564 0.254844 -1.868808 15.529565 -0.000002 0.000001 0.000002 0.219475 -1.736542 14.405057 0.308862 -2.053198 17.108137 0.000000 0.000002 0.000004 0.292381 -1.998860 16.641631 0.411184 -2.359910 19.765188 0.000001 0.000001 0.000001 0.540132 -2.691524 22.690471 0.540125 -2.691533 22.690479 0.000001 0.000002 -0.000005 0.000000 -0.000000 -0.000001 -0.000000 -0.000001 0.000000 -0.000000 -0.000001 0.000000 -0.000000 -0.000001 0.000000 -0.000000 -0.000001 0.000000 -0.000000 -0.000001 0.000000 -0.000000 -0.000001 0.000000 -0.000000 -0.000001 0.000000 -0.000000 -0.000001 0.000000 -0.000000 -0.000001 0.000000 -0.000000 -0.000001 -0.000000 -0.000000 -0.000001 -0.000000 -0.000000 -0.000003 -0.000000 
